<svg xmlns="http://www.w3.org/2000/svg" width="182.536" height="125.267" viewBox="0 0 182.536 125.267">
  <g id="logo" transform="translate(0 0.003)">
    <path id="Path_1" data-name="Path 1" d="M831.558,425.229a12.521,12.521,0,0,1,2.829,1.523,90.661,90.661,0,0,0,28.89,17.8c12.669,4.747,25.657,7.147,39.405,5.335a86.039,86.039,0,0,0,38.258-14.457c3.971-2.732,7.643-5.894,11.5-8.8a18.505,18.505,0,0,1,2.67-1.412l.627.684a19.3,19.3,0,0,1-1.759,2.862c-9.84,11.243-20.876,21.049-34.658,27.189-11.464,5.113-23.406,7.229-36.017,5.021-17.228-2.993-30.895-12.081-42.841-24.249-3.306-3.373-6.328-7.021-9.479-10.539Z" transform="translate(-801.888 -417.896)" fill="#fccd4b"/>
    <path id="Path_2" data-name="Path 2" d="M826.692,410.968a2.472,2.472,0,0,1,1.446.183c.694.482,1.614,1.33,1.576,1.976s-1.1,1.364-1.87,1.653c-.853.323-1.928,0-2.824.3a5.34,5.34,0,0,0-3.817,4.992c-.115,1.369-.559,2.462-2.116,2.3-1.691-.183-1.879-1.5-1.711-2.891C818.023,414.071,821.227,411.006,826.692,410.968Z" transform="translate(-794.814 -410.502)" fill="#fccd4b"/>
    <path id="Path_3" data-name="Path 3" d="M1090.37,419.614a4.18,4.18,0,0,1-.439,1.624,2.748,2.748,0,0,1-1.725,1.219c-.419.029-.964-.843-1.335-1.383-.164-.227-.087-.622-.125-.94-.515-4.593-1.263-5.3-5.715-6.366-.849-.2-2.048-1.243-2.111-1.981-.13-1.479,1.152-1.812,2.53-1.754C1087.064,410.27,1090.327,413.58,1090.37,419.614Z" transform="translate(-930.341 -410.03)" fill="#fccd4b"/>
    <path id="Path_4" data-name="Path 4" d="M845.081,641.074l4.79.048v-4.992c0-1.446.082-2.973,1.927-3s1.59,1.581,1.6,2.834v5.007h4.969q0-3.706.034-7.426a1.928,1.928,0,0,1,.381-1.19,1.658,1.658,0,0,1,1.706-.631,1.686,1.686,0,0,1,1.1,1.513l.053,7.932c4.564,0,13.686-.072,16.919-.1a1.19,1.19,0,0,0,1.181-1.185q0-3.137.048-6.265a1.793,1.793,0,0,1,1.412-1.783,2.063,2.063,0,0,1,.25-.029,1.92,1.92,0,0,1,.482.029,1.8,1.8,0,0,1,1.417,1.8v6.221a1.209,1.209,0,0,0,1.224,1.209c2.318,0,7.228-.048,8.7,0,4.125.178,5.041-.544,5.127-3.05a38.964,38.964,0,0,1,.111-5.041,1.446,1.446,0,0,1,.376-.675,1.6,1.6,0,0,1,2.53.2,1.083,1.083,0,0,1,.173.482,72.452,72.452,0,0,1,0,7.455,3.491,3.491,0,0,1-3.822,3.349c-5.363-.058-10.722-.279-16.086-.26-9.363.029-18.727.193-28.09.284-2.723.029-5.445,0-8.192,0-.342.964-.612,1.769-.963,2.573a4.983,4.983,0,0,1-2.082,2.593,6.6,6.6,0,0,1-2.992.583,19.185,19.185,0,0,1-3.036,0c-2.752-.217-4.144-.308-5.108-1.181a5.36,5.36,0,0,1-1.528-3.3,23.949,23.949,0,0,1,0-5.754,1.252,1.252,0,0,1,.1-.342,1.691,1.691,0,0,1,2.795-.318,1.658,1.658,0,0,1,.357.612,18.89,18.89,0,0,1,.164,4.062c.063,2.342,1.475,3.624,4.149,3.455s3.9-1.128,3.961-3.373c.063-2.361-.072-5.229.053-7.45a1.1,1.1,0,0,1,.106-.381,1.764,1.764,0,0,1,1.364-1.046,2.029,2.029,0,0,1,2.284,2.024C845.066,637.787,845.081,639.965,845.081,641.074Z" transform="translate(-801.132 -524.869)" fill="#fcfcfc"/>
    <path id="Path_5" data-name="Path 5" d="M1001.611,643.717a8.337,8.337,0,0,1-2.265,4.125,6.87,6.87,0,0,1-1.518,1.147c-1.836,1.007-3.961.747-6.043.424a1.059,1.059,0,0,1-.424-.183,1.576,1.576,0,0,1,.482-2.761l.106-.029a16.363,16.363,0,0,1,3.118-.058c2.125-.043,2.125-.053,2.891-2.453-2.443-.8-6.053.569-7.373-1.927a10.367,10.367,0,0,1-.685-4.853,6.194,6.194,0,0,1,5.836-5.672,5.489,5.489,0,0,1,5.214,3.277c.829,1.812.525,4.033.525,6.231h16.3a24,24,0,0,1,.154-4.853,1.669,1.669,0,0,1,.27-.578,1.734,1.734,0,0,1,3.084.3,1.374,1.374,0,0,1,.048.193,32.69,32.69,0,0,1,.072,4.944h4.062c1.364.048.829.28.964-4.173.053-1.489-.241-3.749,1.792-3.749,2.188,0,1.75,2.14,1.826,3.6.072,1.354,0,2.993,0,4.313,3.609,0,4.819.029,4.819-3.73a23.4,23.4,0,0,1,.2-4.549,1.168,1.168,0,0,1,.246-.482,1.7,1.7,0,0,1,2.694.116.963.963,0,0,1,.178.482,71.885,71.885,0,0,1,.034,7.71c-.082,1.928-2.26,3.2-4.472,3.2q-15.06.029-30.109,0Zm-3.1-2.752a10.789,10.789,0,0,0-.3-4.033,2.858,2.858,0,0,0-1.1-1.224,3.083,3.083,0,0,0-3.267-.1c-1.653,1.248-1,5.359-1,5.359h5.662Z" transform="translate(-884.22 -524.761)" fill="#fcfcfc"/>
    <circle id="Ellipse_1" data-name="Ellipse 1" cx="1.59" cy="1.59" r="1.59" transform="translate(142.127 97.025)" fill="#fcfcfc"/>
    <circle id="Ellipse_2" data-name="Ellipse 2" cx="1.59" cy="1.59" r="1.59" transform="translate(144.845 101.217)" fill="#fcfcfc"/>
    <circle id="Ellipse_3" data-name="Ellipse 3" cx="1.59" cy="1.59" r="1.59" transform="translate(139.409 101.217)" fill="#fcfcfc"/>
    <circle id="Ellipse_4" data-name="Ellipse 4" cx="1.59" cy="1.59" r="1.59" transform="translate(95.383 122.083)" fill="#fcfcfc"/>
    <circle id="Ellipse_5" data-name="Ellipse 5" cx="1.59" cy="1.59" r="1.59" transform="translate(78.858 101.241)" fill="#fcfcfc"/>
    <path id="Path_6" data-name="Path 6" d="M789.322,561.044a6.944,6.944,0,0,1-1.1,3.855A7.324,7.324,0,0,1,785,567.564a12.079,12.079,0,0,1-5.026.964,11.318,11.318,0,0,1-5.749-1.316,7.625,7.625,0,0,1-2.612-2.53,5.746,5.746,0,0,1-1-3.079,2.082,2.082,0,0,1,2.135-2.1,1.806,1.806,0,0,1,1.277.482,3.762,3.762,0,0,1,.891,1.446,9.2,9.2,0,0,0,.964,1.88,3.889,3.889,0,0,0,1.47,1.248,5.471,5.471,0,0,0,2.487.482,5.6,5.6,0,0,0,3.445-.964,2.959,2.959,0,0,0,1.325-2.463,2.6,2.6,0,0,0-.713-1.928,4.567,4.567,0,0,0-1.846-1.118q-1.137-.381-3.031-.819a22.046,22.046,0,0,1-4.245-1.388,6.918,6.918,0,0,1-2.718-2.173,5.613,5.613,0,0,1-1-3.412,5.855,5.855,0,0,1,1.06-3.455,6.709,6.709,0,0,1,3.07-2.318,12.561,12.561,0,0,1,4.723-.815,11.729,11.729,0,0,1,3.749.54,7.809,7.809,0,0,1,2.626,1.446,6.041,6.041,0,0,1,1.528,1.87,4.374,4.374,0,0,1,.482,1.928,2.257,2.257,0,0,1-.6,1.532,1.928,1.928,0,0,1-1.5.684,1.739,1.739,0,0,1-1.243-.409,5.576,5.576,0,0,1-.925-1.345,6.106,6.106,0,0,0-1.542-2.077,4.621,4.621,0,0,0-2.891-.747,5,5,0,0,0-2.978.81,2.352,2.352,0,0,0-1.132,1.927,1.929,1.929,0,0,0,.386,1.219,3.146,3.146,0,0,0,1.06.887,7.108,7.108,0,0,0,1.364.578c.482.14,1.219.342,2.279.612a35.093,35.093,0,0,1,3.61,1.026,11.086,11.086,0,0,1,2.747,1.364,5.6,5.6,0,0,1,1.764,2.033A6.491,6.491,0,0,1,789.322,561.044Z" transform="translate(-770.61 -479.537)" fill="#fcfcfc"/>
    <path id="Path_7" data-name="Path 7" d="M822.671,547.019v6.747h10.3v-6.747a3.152,3.152,0,0,1,.65-2.168,2.187,2.187,0,0,1,1.711-.723,2.265,2.265,0,0,1,1.74.718,3.075,3.075,0,0,1,.67,2.173v18.558a3.107,3.107,0,0,1-.674,2.183,2.276,2.276,0,0,1-1.735.723,2.179,2.179,0,0,1-1.72-.732,3.2,3.2,0,0,1-.641-2.173v-7.922h-10.3v7.922A3.108,3.108,0,0,1,822,567.76a2.27,2.27,0,0,1-1.735.723,2.179,2.179,0,0,1-1.72-.732,3.2,3.2,0,0,1-.641-2.173V547.019a3.23,3.23,0,0,1,.631-2.168,2.187,2.187,0,0,1,1.73-.723,2.28,2.28,0,0,1,1.745.718A3.1,3.1,0,0,1,822.671,547.019Z" transform="translate(-795.107 -479.506)" fill="#fcfcfc"/>
    <path id="Path_8" data-name="Path 8" d="M878.868,544.125a12.53,12.53,0,0,1,6.265,1.489,9.6,9.6,0,0,1,3.976,4.222,14.379,14.379,0,0,1,1.349,6.433,15.8,15.8,0,0,1-.737,4.968,10.758,10.758,0,0,1-2.217,3.855,9.669,9.669,0,0,1-3.629,2.506,14.325,14.325,0,0,1-9.884,0,9.753,9.753,0,0,1-3.643-2.515,10.772,10.772,0,0,1-2.212-3.9,15.773,15.773,0,0,1-.747-4.93,15.218,15.218,0,0,1,.781-4.983,10.738,10.738,0,0,1,2.255-3.855,9.826,9.826,0,0,1,3.6-2.409A13.041,13.041,0,0,1,878.868,544.125Zm6.78,12.115a11.087,11.087,0,0,0-.834-4.482,6.263,6.263,0,0,0-2.385-2.891,6.552,6.552,0,0,0-3.562-.964,6.394,6.394,0,0,0-2.641.54,5.833,5.833,0,0,0-2.091,1.566,7.489,7.489,0,0,0-1.378,2.626,11.854,11.854,0,0,0-.482,3.59,12.147,12.147,0,0,0,.482,3.629,7.5,7.5,0,0,0,1.446,2.694,6.028,6.028,0,0,0,2.125,1.595,6.349,6.349,0,0,0,2.626.53,6.425,6.425,0,0,0,3.373-.916,6.337,6.337,0,0,0,2.414-2.829,10.981,10.981,0,0,0,.906-4.689Z" transform="translate(-820.751 -479.504)" fill="#fcfcfc"/>
    <path id="Path_9" data-name="Path 9" d="M932.914,559.322h-4.371v6.669a3.107,3.107,0,0,1-.675,2.169,2.376,2.376,0,0,1-3.436,0,3.1,3.1,0,0,1-.66-2.144V547.852a2.964,2.964,0,0,1,.723-2.246,3.3,3.3,0,0,1,2.3-.675h6.12a16.278,16.278,0,0,1,4.178.414,6.266,6.266,0,0,1,2.5,1.335,6.094,6.094,0,0,1,1.6,2.279,8.1,8.1,0,0,1,.545,3.036,6.709,6.709,0,0,1-2.217,5.455Q937.3,559.307,932.914,559.322Zm-1.157-10.795h-3.214v7.195h3.214a9.6,9.6,0,0,0,2.819-.352,3.278,3.278,0,0,0,1.725-1.157,3.465,3.465,0,0,0,.6-2.106,3.575,3.575,0,0,0-.916-2.535Q934.961,548.527,931.757,548.527Z" transform="translate(-849.959 -479.92)" fill="#fcfcfc"/>
    <path id="Path_10" data-name="Path 10" d="M975.581,546.965l9.156,13.879V546.834a3.076,3.076,0,0,1,.588-2.048,1.981,1.981,0,0,1,1.581-.684,2.044,2.044,0,0,1,1.624.684,3.047,3.047,0,0,1,.593,2.048v18.524q0,3.1-2.569,3.1a3.466,3.466,0,0,1-1.157-.183,2.938,2.938,0,0,1-.964-.588,5.845,5.845,0,0,1-.833-.964c-.26-.357-.516-.728-.771-1.1l-8.949-13.72v13.821a2.968,2.968,0,0,1-.627,2.043,2.087,2.087,0,0,1-1.609.689,2.034,2.034,0,0,1-1.619-.7,2.992,2.992,0,0,1-.612-2.034V547.557a5.237,5.237,0,0,1,.255-1.817,2.656,2.656,0,0,1,1.012-1.181,2.78,2.78,0,0,1,1.527-.482,2.54,2.54,0,0,1,1.928.771,5.938,5.938,0,0,1,.708.916Z" transform="translate(-873.606 -479.48)" fill="#fcfcfc"/>
    <path id="Path_11" data-name="Path 11" d="M1036.694,548.605h-10.747v5.783h9.894a2.367,2.367,0,0,1,1.633.482,1.667,1.667,0,0,1,.535,1.292,1.721,1.721,0,0,1-.54,1.311,2.293,2.293,0,0,1-1.639.506h-9.894V564.7h11.117a2.434,2.434,0,0,1,1.692.52,1.805,1.805,0,0,1,.573,1.393,1.75,1.75,0,0,1-.573,1.354,2.41,2.41,0,0,1-1.692.525h-12.968a3.053,3.053,0,0,1-2.241-.694,3.091,3.091,0,0,1-.679-2.231V547.834a3.992,3.992,0,0,1,.3-1.677,1.891,1.891,0,0,1,.964-.964,4.034,4.034,0,0,1,1.663-.294h12.6a2.454,2.454,0,0,1,1.7.482,1.716,1.716,0,0,1,.554,1.325,1.738,1.738,0,0,1-.554,1.34,2.452,2.452,0,0,1-1.7.559Z" transform="translate(-900.422 -479.902)" fill="#fcfcfc"/>
    <path id="Path_12" data-name="Path 12" d="M1083.737,561.044a6.911,6.911,0,0,1-1.1,3.855,7.312,7.312,0,0,1-3.219,2.665,12.082,12.082,0,0,1-5.026.964,11.346,11.346,0,0,1-5.754-1.316,7.615,7.615,0,0,1-2.607-2.53,5.745,5.745,0,0,1-1.007-3.079,2.082,2.082,0,0,1,2.14-2.1,1.817,1.817,0,0,1,1.277.482,3.758,3.758,0,0,1,.892,1.446,9.442,9.442,0,0,0,.964,1.879,3.968,3.968,0,0,0,1.446,1.248,5.491,5.491,0,0,0,2.491.482,5.61,5.61,0,0,0,3.446-.964,2.969,2.969,0,0,0,1.325-2.463,2.6,2.6,0,0,0-.713-1.927,4.553,4.553,0,0,0-1.85-1.118c-.752-.255-1.764-.53-3.026-.819a22.212,22.212,0,0,1-4.25-1.388,6.936,6.936,0,0,1-2.713-2.173,5.615,5.615,0,0,1-1-3.412,5.855,5.855,0,0,1,1.06-3.455,6.7,6.7,0,0,1,3.065-2.318,12.6,12.6,0,0,1,4.723-.814,11.76,11.76,0,0,1,3.755.54,7.858,7.858,0,0,1,2.626,1.446,6.039,6.039,0,0,1,1.528,1.87,4.376,4.376,0,0,1,.482,1.928,2.256,2.256,0,0,1-.6,1.533,1.928,1.928,0,0,1-1.5.684,1.743,1.743,0,0,1-1.248-.41,5.7,5.7,0,0,1-.921-1.344,6.109,6.109,0,0,0-1.542-2.077,4.619,4.619,0,0,0-2.891-.747,5.022,5.022,0,0,0-2.983.81,2.366,2.366,0,0,0-1.132,1.928,1.977,1.977,0,0,0,.385,1.219,3.241,3.241,0,0,0,1.06.887,7.268,7.268,0,0,0,1.368.578c.482.14,1.219.342,2.279.612a34.667,34.667,0,0,1,3.6,1.026,11.008,11.008,0,0,1,2.752,1.364,5.646,5.646,0,0,1,1.764,2.034A6.487,6.487,0,0,1,1083.737,561.044Z" transform="translate(-923.143 -479.537)" fill="#fcfcfc"/>
    <path id="Path_13" data-name="Path 13" d="M1129.272,561.044a6.945,6.945,0,0,1-1.1,3.855,7.315,7.315,0,0,1-3.219,2.665,12.109,12.109,0,0,1-5.031.964,11.32,11.32,0,0,1-5.749-1.316,7.672,7.672,0,0,1-2.612-2.53,5.743,5.743,0,0,1-1-3.079,2.082,2.082,0,0,1,2.135-2.1,1.8,1.8,0,0,1,1.277.482,3.758,3.758,0,0,1,.891,1.446,9.429,9.429,0,0,0,.964,1.879,3.927,3.927,0,0,0,1.446,1.248,5.477,5.477,0,0,0,2.492.482,5.619,5.619,0,0,0,3.446-.964,2.97,2.97,0,0,0,1.325-2.463,2.6,2.6,0,0,0-.718-1.928,4.5,4.5,0,0,0-1.846-1.118q-1.137-.381-3.026-.819a22.231,22.231,0,0,1-4.25-1.388,6.872,6.872,0,0,1-2.713-2.173,5.614,5.614,0,0,1-1.007-3.412,5.887,5.887,0,0,1,1.06-3.455A6.707,6.707,0,0,1,1115.1,545a12.578,12.578,0,0,1,4.723-.815,11.736,11.736,0,0,1,3.75.54,7.809,7.809,0,0,1,2.626,1.446,5.972,5.972,0,0,1,1.528,1.87,4.309,4.309,0,0,1,.482,1.928,2.256,2.256,0,0,1-.6,1.532,1.928,1.928,0,0,1-1.5.684,1.739,1.739,0,0,1-1.243-.41,5.566,5.566,0,0,1-.925-1.345,5.988,5.988,0,0,0-1.542-2.077,4.6,4.6,0,0,0-2.891-.747,5.018,5.018,0,0,0-2.978.81,2.352,2.352,0,0,0-1.133,1.927,1.984,1.984,0,0,0,.386,1.219,3.2,3.2,0,0,0,1.06.887,7.218,7.218,0,0,0,1.364.578q.694.207,2.284.612a35.055,35.055,0,0,1,3.6,1.026,11.088,11.088,0,0,1,2.747,1.364,5.613,5.613,0,0,1,1.769,2.033A6.5,6.5,0,0,1,1129.272,561.044Z" transform="translate(-946.738 -479.537)" fill="#fcfcfc"/>
  </g>
</svg>
